<svg width="108" height="120" viewBox="0 0 108 120" fill="none" xmlns="http://www.w3.org/2000/svg">
<path d="M33.0351 85.8254C34.5304 80.5656 31.4762 75.2256 28.698 70.4301C25.5603 65.0114 22.6082 59.3612 21.6866 53.2742C19.9939 42.0912 25.955 30.2705 36.2046 24.1255C46.4525 17.9806 60.4353 17.7316 71.0327 23.348C75.0553 25.4798 78.6497 28.4438 80.8759 32.2031C83.5035 36.6435 84.0655 41.8615 84.1942 46.922C84.3331 52.3359 83.9634 57.9957 81.0648 62.7012C78.6831 66.5665 74.8244 69.418 71.297 72.4431C65.9297 77.0458 61.1611 82.2428 57.1235 87.8881C56.7623 88.3942 56.3893 88.9179 55.839 89.2473C55.0228 89.734 53.9774 89.7003 53.009 89.6312C46.1213 89.1412 39.3123 87.7419 33.0351 85.8254Z" fill="white"/>
<path d="M32.1252 86.2958C40.8443 88.3007 49.7775 89.5136 58.7526 89.9121C58.1421 96.8956 57.4915 104.033 54.4123 110.435C52.9086 113.562 50.6089 116.635 47.1366 117.819C43.0187 119.223 38.4776 117.628 34.4584 115.997C32.8995 115.366 31.2956 114.691 30.1733 113.507C27.8751 111.084 28.3083 107.426 28.8787 104.247C29.9876 98.0635 31.0965 91.8784 32.1252 86.2958Z" fill="#10BC4C"/>
<g opacity="0.1294">
<path d="M85.8654 51.0538C85.28 50.2746 83.9586 50.2441 83.318 50.9831C82.8213 51.7446 83.0103 51.367 82.654 52.5157C82.6122 52.6651 82.5671 52.8161 82.5202 52.9655C82.3396 53.4202 81.7458 54.9287 81.5619 55.2612C81.8529 54.8355 81.8411 54.8548 81.5267 55.3175C79.8173 58.1674 79.4159 59.0108 77.4858 61.2391C76.9773 61.8897 75.9771 63.4111 74.2928 64.8473C72.2556 66.7607 66.9468 70.144 63.7053 73.2655C62.7603 74.149 60.6663 76.1636 60.3585 76.5186C60.3502 76.5267 60.3468 76.5299 60.3368 76.5379C59.1443 77.5805 57.9383 78.6264 56.9632 79.8554C55.0414 82.3503 55.1819 82.323 53.9224 84.1432C53.1681 85.3738 52.014 86.9208 51.8719 88.2671C51.8635 88.3747 51.8735 88.4743 51.8802 88.5756C51.248 89.2856 50.8851 90.2254 51.0222 91.3371C51.4454 94.0955 50.9469 97.1592 49.9584 101.982C48.9064 106.985 49.0837 107.949 46.9377 112.302C45.7736 114.373 46.5547 113.139 45.0477 115.099C44.6848 115.583 44.1747 116.008 44.0659 116.609C43.1126 119.197 46.7655 121.095 48.7592 119.286C51.5859 117.154 53.2718 114.018 54.6015 110.938C56.0265 106.919 56.8093 103.307 58.3013 98.8733C58.9301 96.9487 59.1292 94.9357 59.268 92.9372C59.278 91.6649 59.4955 90.227 58.7194 89.1057C58.7177 89.1025 58.7144 89.0993 58.7144 89.0993C58.4618 89.096 58.2076 89.0929 57.955 89.088C57.5168 89.0784 57.0786 89.0639 56.6404 89.0431C59.4637 83.5102 61.4892 80.506 65.5586 76.7002C68.1745 74.5218 71.0112 72.5779 73.7408 70.5247C76.3133 68.6981 78.6733 66.5856 80.6135 64.179C81.7425 62.4649 81.5752 62.6207 82.3312 61.3708C82.4533 61.1684 82.276 61.427 82.1723 61.5829C82.5905 60.974 82.9818 60.3507 83.3665 59.7225C83.9804 58.7602 84.4136 57.7176 84.7715 56.6541C84.7748 56.6509 84.7815 56.6364 84.7949 56.6059C85.5593 54.5222 86.7586 52.3679 85.8654 51.0538Z" fill="black"/>
</g>
<g opacity="0.1294">
<path d="M53.6782 84.4951C53.7652 84.3698 53.8471 84.2541 53.9224 84.1432C53.9492 84.0983 53.981 84.0517 54.0061 84.0083C53.8974 84.169 53.7869 84.3328 53.6782 84.4951Z" fill="black"/>
</g>
<path d="M43.9654 119.429C41.5636 119.429 39.3742 118.921 38.1114 118.556C35.5223 117.809 29.3689 115.507 28.1228 110.284C27.6729 108.403 27.9773 106.442 28.2466 104.71L31.1853 85.7738C31.2087 85.6196 31.3007 85.483 31.4345 85.3979C31.57 85.3127 31.7356 85.2854 31.8928 85.3256C36.9774 86.614 54.1247 89.2149 58.8748 89.4174C59.0287 89.4238 59.1726 89.4897 59.2746 89.6005C59.3766 89.7114 59.4285 89.8559 59.4167 90.0037C58.8732 97.2845 57.6806 103.018 55.1634 110.455C54.3656 112.811 53.4172 115.26 51.3884 117.009C49.2308 118.871 46.4827 119.429 43.9654 119.429ZM32.2189 86.5337L29.3722 104.874C29.1063 106.589 28.8303 108.361 29.2317 110.043C30.344 114.706 36.0408 116.82 38.4393 117.512C40.8428 118.206 46.8406 119.467 50.629 116.2C52.4488 114.63 53.3319 112.336 54.0829 110.121C56.5366 102.87 57.6806 97.4885 58.2393 90.4825C52.9707 90.1275 37.7669 87.8221 32.2189 86.5337Z" fill="black"/>
<path d="M57.0767 90.1177C57.0182 90.1177 56.958 90.1097 56.8994 90.0904C56.6 89.9972 56.4378 89.6872 56.5348 89.4012C58.7844 82.7759 64.5766 78.0351 70.1764 73.4517C75.4065 69.1704 80.814 64.7428 83.2292 58.8308C84.5288 55.6499 85.723 47.6109 84.1575 40.4571C82.9984 35.1588 80.7906 30.9947 77.5976 28.0837C71.6198 22.6328 60.5958 17.8053 51.0856 19.1274C42.0252 20.3885 34.2025 24.0112 29.0576 29.3288C24.3293 34.2174 21.5712 40.7511 21.2935 47.7266C21.0326 54.2474 22.9126 60.9257 26.7277 67.0401C27.2529 67.8819 27.8233 68.7254 28.3752 69.5415C29.531 71.2492 30.7235 73.0164 31.6117 74.9136C33.2057 78.3259 33.7777 82.0771 33.2659 85.7625C33.2241 86.0613 32.9364 86.2701 32.6269 86.2316C32.3158 86.1914 32.0967 85.9167 32.1386 85.6179C32.6219 82.1333 32.0817 78.5861 30.5747 75.3603C29.7234 73.5401 28.5542 71.8099 27.4236 70.1359C26.8666 69.3117 26.2912 68.4603 25.7543 67.6024C21.8237 61.3049 19.8903 54.4177 20.1579 47.6848C20.4472 40.4475 23.3124 33.6648 28.2264 28.585C33.5469 23.0843 41.6087 19.3411 50.925 18.0462C60.7915 16.6727 72.2085 21.6577 78.3837 27.2917C81.7473 30.3602 84.0655 34.7138 85.2731 40.2338C86.8855 47.6045 85.6394 55.9279 84.2896 59.2309C81.7707 65.3983 76.2528 69.9158 70.9156 74.2839C65.4346 78.7709 59.7679 83.4089 57.6187 89.7418C57.5401 89.9715 57.3159 90.1177 57.0767 90.1177Z" fill="black"/>
<path d="M49.8797 88.7636C49.8496 88.7636 49.8178 88.762 49.786 88.7556C49.4766 88.7058 49.2658 88.4247 49.3177 88.1274L49.3361 88.0182C50.4367 81.5407 51.8299 74.8062 53.4808 68.0026C54.2067 65.0113 54.9326 62.2899 56.2573 59.7933C54.2284 58.9788 52.5157 57.4639 51.5105 55.8269C51.3281 55.5296 51.1592 55.2228 51.0053 54.9063C50.6441 55.3834 50.2677 55.8542 49.8764 56.3136C47.7856 58.7812 45.7367 59.9283 43.6226 59.8126C42.9201 59.7757 42.2527 59.5909 41.6255 59.3307C41.9182 61.3179 42.0453 63.2859 42.1139 65.1511C42.3781 72.3258 41.8429 79.5503 40.5216 86.6254C40.4664 86.9226 40.1687 87.1202 39.8609 87.0671C39.5515 87.0141 39.3458 86.7298 39.401 86.4326C40.7073 79.4346 41.2374 72.2888 40.9748 65.1912C40.8979 63.1156 40.7474 60.9115 40.3711 58.7057C40.0834 58.5403 39.8074 58.3684 39.5415 58.1997C36.9021 56.5257 33.6941 54.1802 32.2908 50.882C31.6803 49.4506 31.7874 48.1879 32.5835 47.4184C33.4599 46.5717 34.9017 46.6151 35.8718 47.0954C36.8453 47.5774 37.4942 48.4176 37.9993 49.1775C39.8275 51.9198 40.836 54.9674 41.4031 58.0165C42.1273 58.3941 42.885 58.68 43.6811 58.7234C45.4055 58.8101 47.1434 57.8029 48.9882 55.626C49.5167 55.0011 50.0202 54.3601 50.4952 53.7046C49.7392 51.5824 49.5084 49.0634 49.7944 46.0753C50.0101 43.8101 50.5671 40.5344 52.8954 38.2323C53.5995 37.5367 54.3773 37.2973 55.0313 37.5768C55.5196 37.7857 55.7671 38.213 55.926 38.5616C57.1704 41.2766 56.3559 44.3001 55.635 46.3372C54.6934 48.9976 53.3971 51.5166 51.768 53.854C51.9737 54.3537 52.2146 54.826 52.4889 55.2726C53.4005 56.757 54.9643 58.1306 56.8008 58.8342C56.8727 58.7154 56.9463 58.5981 57.0233 58.4808C58.8163 55.6951 61.5359 53.3705 64.6787 51.9359C65.2758 51.6628 65.9833 51.4105 66.7025 51.6065C67.2913 51.7672 67.7044 52.1415 67.9001 52.6893C68.2681 53.7191 67.7529 55.0766 67.1207 55.9024C65.2256 58.3748 63.0998 59.8496 60.8033 60.2881C59.6208 60.5131 58.45 60.4408 57.3444 60.1548C56.0298 62.5838 55.3089 65.278 54.588 68.2516C52.9438 75.0327 51.5539 81.7432 50.4584 88.1965L50.44 88.3074C50.3948 88.5724 50.154 88.7636 49.8797 88.7636ZM57.9215 59.1684C58.7812 59.3548 59.6794 59.3853 60.5825 59.2134C62.5913 58.8294 64.483 57.4976 66.2058 55.2517C66.736 54.5609 67.0136 53.5697 66.8246 53.0412C66.751 52.8371 66.6189 52.7182 66.3947 52.6572C66.0418 52.5592 65.5969 52.7279 65.1704 52.9223C62.2233 54.2685 59.6743 56.4454 57.995 59.0559C57.9699 59.0929 57.9466 59.1298 57.9215 59.1684ZM34.3849 47.8409C34.0119 47.8409 33.649 47.9421 33.3947 48.1879C32.7441 48.816 33.1455 49.9904 33.3479 50.4659C34.614 53.438 37.4558 55.5537 40.0901 57.2309C39.5197 54.6348 38.5881 52.074 37.046 49.7623C36.6211 49.1261 36.0893 48.4256 35.355 48.0626C35.074 47.9276 34.7244 47.8409 34.3849 47.8409ZM54.4743 38.5552C54.2819 38.5552 53.9959 38.7175 53.7166 38.9922C52.136 40.5553 51.2512 42.8366 50.9334 46.1717C50.7009 48.6168 50.8264 50.7181 51.3181 52.5174C52.6629 50.4659 53.7501 48.2794 54.5629 45.9837C55.6116 43.0213 55.7153 40.8027 54.8907 39.0018C54.8188 38.846 54.7084 38.6323 54.5746 38.5745C54.5445 38.5616 54.5111 38.5552 54.4743 38.5552Z" fill="black"/>
<path d="M97.4395 44.88C97.1468 44.88 96.8993 44.6647 96.8726 44.3803C96.8458 44.0863 97.0665 43.8245 97.3726 43.7891L106.629 42.7288C107.524 42.626 107.838 43.026 107.947 43.2734C108.03 43.4662 108.015 43.6751 107.903 43.8454C107.622 44.2775 107.585 44.3337 97.473 44.8767C97.4596 44.8784 97.4496 44.88 97.4395 44.88Z" fill="black"/>
<path d="M60.0155 10.7416C60.0004 10.7416 59.9837 10.7416 59.9687 10.7399C59.6559 10.7158 59.4217 10.4508 59.4485 10.1503L60.268 0.501623C60.2931 0.201205 60.5641 -0.0237027 60.8819 0.00200156C61.1947 0.0260993 61.4288 0.291169 61.4021 0.591588L60.5825 10.2403C60.5574 10.5247 60.3082 10.7416 60.0155 10.7416Z" fill="black"/>
<path d="M27.3969 18.4512C27.2748 18.4512 27.151 18.4126 27.0473 18.3355L20.1964 13.1915C20.0225 13.0597 19.4906 12.6613 19.6294 12.0637C19.6829 11.8388 19.8452 11.6653 20.0676 11.5994C20.5293 11.4612 20.8605 11.36 27.7849 17.5033C28.0091 17.7026 28.0308 18.0351 27.8317 18.2584C27.718 18.3853 27.5575 18.4512 27.3969 18.4512Z" fill="black"/>
<path d="M0.568704 45.317C0.255931 45.317 0.00170543 45.0745 3.28521e-05 44.774C-0.00331231 44.472 0.249231 44.2262 0.563676 44.223L10.5139 44.1443H10.5189C10.8317 44.1443 11.0859 44.3869 11.0876 44.6873C11.0909 44.9893 10.8367 45.2351 10.5222 45.2383L0.572047 45.317H0.568704Z" fill="black"/>
<path d="M83.7077 21.1774C83.5588 21.1774 83.4117 21.1212 83.2996 21.012C83.0805 20.7951 83.0855 20.4497 83.3113 20.2392L90.1705 13.8308C90.3963 13.6204 90.7559 13.6252 90.9751 13.8421C91.1942 14.059 91.1892 14.4044 90.9634 14.6148L84.1041 21.0232C83.9937 21.126 83.8515 21.1774 83.7077 21.1774Z" fill="black"/>
<path d="M91.96 78.9959C91.8011 78.9959 91.6423 78.9317 91.5302 78.808L85.4403 72.0686C85.2346 71.8405 85.2597 71.4951 85.4972 71.2975C85.7347 71.0999 86.0943 71.124 86.3 71.3521L92.3899 78.0915C92.5956 78.3196 92.5706 78.665 92.3331 78.8626C92.226 78.9526 92.0922 78.9959 91.96 78.9959Z" fill="black"/>
</svg>
