<svg width="40" height="40" viewBox="0 0 40 40" fill="none" xmlns="http://www.w3.org/2000/svg">
<path d="M9.93511 30.4511C13.0727 33.6931 16.9326 36.147 21.1996 37.6124C18.077 39.6447 12.1674 37.7285 7.40608 32.9802C2.64479 28.2318 0.709305 22.3221 2.74156 19.1866C4.21385 23.458 6.67932 27.3187 9.93511 30.4511Z" fill="url(#paint0_linear_43_150)"/>
<path d="M32.4323 33.7734C32.1468 34.3357 31.7745 34.8495 31.3291 35.296C29.5097 37.1153 26.6775 37.625 23.4517 36.9863L22.8065 36.8508C22.5936 36.7992 22.3871 36.7476 22.1613 36.6831C18.4452 35.6443 14.342 33.1992 10.7355 29.5863C7.12909 25.9734 4.68393 21.8766 3.63877 18.1605C3.57425 17.9476 3.51618 17.7411 3.46457 17.5153C3.41296 17.2895 3.36779 17.0895 3.32908 16.8702C2.68392 13.6443 3.20006 10.8121 5.01941 8.99273C5.46927 8.54675 5.98496 8.17249 6.54844 7.88306C6.25539 9.82411 6.3897 11.8057 6.94199 13.6895C7.14344 14.4565 7.3912 15.2106 7.68392 15.9476C7.76134 16.1476 7.85166 16.354 7.93553 16.554C8.0194 16.754 8.11618 16.9734 8.21296 17.1992C9.76244 20.4534 11.8744 23.4085 14.4517 25.9282C16.9588 28.4791 19.8935 30.5709 23.1226 32.1089L23.7678 32.3863L24.3743 32.6379C25.1133 32.9248 25.8671 33.1725 26.6323 33.3798C27.9191 33.7337 29.2462 33.9202 30.5807 33.9347C31.2013 33.9331 31.8207 33.8792 32.4323 33.7734Z" fill="url(#paint1_linear_43_150)"/>
<path d="M37.807 25.3023C37.8726 26.2969 37.7348 27.2944 37.402 28.2339C37.0692 29.1734 36.5485 30.0353 35.8715 30.7669C35.4259 31.2177 34.9094 31.5926 34.3425 31.8765C34.123 31.9957 33.8943 32.0971 33.6586 32.1798C33.4376 32.2685 33.2113 32.3439 32.9812 32.4056C30.9805 32.8658 28.8943 32.7946 26.9296 32.1991C25.9824 31.945 25.0552 31.6215 24.1554 31.2314L23.5103 30.9346C23.278 30.8185 23.0393 30.7088 22.807 30.5862C17.2625 27.6569 12.7299 23.1242 9.80057 17.5798C9.67799 17.3475 9.56187 17.1088 9.45219 16.8765C9.34251 16.6443 9.25219 16.4378 9.16187 16.2314C8.77069 15.3335 8.44509 14.4085 8.18767 13.4636C7.59076 11.4968 7.52178 9.40751 7.98767 7.40557C8.05219 7.17331 8.12316 6.9475 8.20703 6.72815C8.29101 6.50756 8.38795 6.29213 8.49735 6.08299C8.78774 5.50907 9.16655 4.98438 9.61993 4.52815C10.3324 3.86758 11.1697 3.35608 12.0826 3.0237C12.9955 2.69132 13.9657 2.54477 14.9361 2.59266H15.0715C14.9164 2.71351 14.7698 2.84501 14.6328 2.98621C13.7761 3.86062 13.1931 4.96601 12.9554 6.16686C12.9167 6.35395 12.8845 6.5475 12.8522 6.74105C12.8199 6.9346 12.807 7.12815 12.7941 7.3346C12.4909 11.4185 14.8328 16.7604 19.2457 21.1733C23.407 25.3346 28.3941 27.6249 32.3748 27.6249C32.6135 27.6249 32.8457 27.6249 33.078 27.6249C33.3103 27.6249 33.4844 27.6249 33.6844 27.5604C33.8862 27.5344 34.0865 27.4978 34.2845 27.4507C34.5933 27.3861 34.8973 27.2999 35.1941 27.1927C36.0349 26.8946 36.7994 26.4143 37.4328 25.7862C37.5686 25.6337 37.6936 25.4721 37.807 25.3023Z" fill="url(#paint2_linear_43_150)"/>
<path d="M38.0776 20.6832C38.0791 21.1288 38.0403 21.5736 37.9615 22.0122C37.8943 22.4304 37.7796 22.8395 37.6196 23.2316C37.379 23.8566 37.0122 24.4254 36.5421 24.9025C35.8378 25.5837 34.9576 26.0551 34.0002 26.2638C33.8002 26.3154 33.6002 26.3477 33.3938 26.38C33.1873 26.4122 32.9938 26.4251 32.7486 26.4316C29.0712 26.6445 24.1615 24.4058 20.0454 20.2896C15.9292 16.1735 13.6776 11.2574 13.897 7.56705C13.9061 7.36619 13.9255 7.16593 13.955 6.96705C13.981 6.77378 14.0177 6.5821 14.0647 6.39286C14.2627 5.41889 14.7376 4.52279 15.4325 3.81221C15.8922 3.35294 16.4381 2.98899 17.0389 2.74124C17.452 2.57453 17.8827 2.45548 18.3228 2.3864C18.7804 2.3026 19.2447 2.26156 19.7099 2.26382H20.1292C20.6777 2.2882 21.2234 2.35506 21.7615 2.46382C21.622 2.53987 21.4883 2.62613 21.3615 2.72189C21.1702 2.85411 20.991 3.00308 20.826 3.16705C20.6841 3.31203 20.5505 3.46496 20.426 3.62511C19.4647 4.91544 19.2131 6.63801 19.5938 8.5606C19.6454 8.82726 19.7099 9.09178 19.7873 9.35415C19.8647 9.64447 19.9615 9.94124 20.0712 10.2316C20.9617 12.5082 22.3301 14.5674 24.0841 16.2703C25.7843 18.0229 27.8416 19.3893 30.1163 20.2767C30.4131 20.3864 30.7034 20.4832 30.9938 20.5606C31.2609 20.6403 31.5323 20.7049 31.8067 20.7541C32.3458 20.8654 32.8949 20.9217 33.4454 20.9219C34.1504 20.9308 34.8515 20.815 35.5163 20.58C35.9512 20.428 36.3602 20.2104 36.7292 19.9348C36.8917 19.8179 37.0428 19.6861 37.1809 19.5412C37.3372 19.3845 37.4817 19.2162 37.6131 19.038C37.7073 18.9102 37.7935 18.7766 37.8712 18.638C37.9792 19.1806 38.0461 19.7305 38.0712 20.2832C38.0712 20.3864 38.0776 20.5477 38.0776 20.6832Z" fill="url(#paint3_linear_43_150)"/>
<path d="M37.3038 15.8704C37.3038 16.0962 37.3038 16.3091 37.3038 16.5155C37.2598 16.9007 37.1643 17.2783 37.02 17.6381C36.9258 17.8644 36.8091 18.0805 36.6716 18.2833C36.5658 18.4332 36.4471 18.5735 36.3167 18.7026L36.2393 18.7801C35.0587 19.8833 33.0716 19.9865 30.8845 19.2639C30.5619 19.1542 30.2393 19.0317 29.9038 18.8897C29.5683 18.7478 29.149 18.5413 28.7684 18.3349C25.9537 16.7678 23.6322 14.4463 22.0651 11.6317C21.8586 11.2609 21.6713 10.8797 21.5038 10.4897C21.3619 10.1671 21.2393 9.84457 21.1361 9.52844C20.4135 7.34134 20.4909 5.35425 21.6071 4.16715L21.6909 4.08328C21.8217 3.95474 21.9619 3.83614 22.1103 3.72844C22.3108 3.58553 22.5274 3.46645 22.7554 3.3736C23.1172 3.23063 23.4973 3.13941 23.8845 3.10263C24.0877 3.07628 24.2925 3.06335 24.4974 3.06392C24.8562 3.06623 25.2142 3.09643 25.5683 3.15425C25.6909 3.15425 25.82 3.19295 25.949 3.21876C25.9255 3.24512 25.9039 3.27315 25.8845 3.30263C25.7637 3.46461 25.6619 3.63996 25.5813 3.82521C25.4452 4.12795 25.3477 4.44657 25.2909 4.7736C25.257 4.99998 25.2397 5.22856 25.2393 5.45747C25.2332 5.7097 25.2462 5.96203 25.278 6.21231C25.3174 6.52406 25.3799 6.83244 25.4651 7.13489C26.0153 8.97272 27.0309 10.6373 28.4135 11.9671C29.9403 13.6097 31.9604 14.7103 34.1683 15.1026C34.3821 15.1324 34.5977 15.1475 34.8135 15.1478H34.8974C35.1137 15.1465 35.3295 15.1271 35.5425 15.0897C35.8708 15.0381 36.19 14.9403 36.4909 14.7994C36.6812 14.7249 36.8595 14.6227 37.02 14.4962C37.0529 14.4853 37.082 14.4651 37.1038 14.4381C37.1038 14.5736 37.1554 14.7026 37.1748 14.8317C37.2445 15.1741 37.2876 15.5213 37.3038 15.8704Z" fill="url(#paint4_linear_43_150)"/>
<path d="M37.148 12.2898C37.0994 12.4987 37.0189 12.6989 36.9093 12.8833C36.87 12.9503 36.8269 13.0149 36.7802 13.0769C36.7279 13.1464 36.6719 13.2132 36.6125 13.2769L36.4899 13.3801C36.3351 13.5146 36.1583 13.6215 35.9673 13.6962C35.6047 13.8427 35.2165 13.9151 34.8254 13.9091C34.5614 13.9048 34.2981 13.8789 34.0383 13.8317C33.7197 13.7757 33.4066 13.6915 33.1028 13.5801C31.664 13.0263 30.3574 12.1768 29.2672 11.0867C28.177 9.99652 27.3276 8.68986 26.7738 7.25105C26.7222 7.10267 26.6835 6.96073 26.6383 6.80589C26.5953 6.64873 26.5609 6.48936 26.5351 6.32847C26.4812 6.0717 26.4531 5.81018 26.4512 5.54783C26.4414 5.15708 26.5117 4.76846 26.6577 4.40589C26.7375 4.22143 26.844 4.0497 26.9738 3.89621C27.0069 3.85239 27.0436 3.81139 27.0835 3.77363C27.1419 3.71101 27.2067 3.65478 27.277 3.60589C27.3346 3.55926 27.3949 3.51617 27.4577 3.47686C27.6448 3.36663 27.8469 3.28405 28.0577 3.2317C28.3178 3.17081 28.5841 3.1405 28.8512 3.14138C29.0518 3.14183 29.2522 3.15476 29.4512 3.18009C31.363 3.55824 33.1102 4.52086 34.4512 5.93492C35.8688 7.26567 36.8381 9.00376 37.2254 10.9091C37.2919 11.3699 37.2656 11.8393 37.148 12.2898Z" fill="url(#paint5_linear_43_150)"/>
<defs>
<linearGradient id="paint0_linear_43_150" x1="1.93511" y1="28.7995" x2="21.1674" y2="28.7995" gradientUnits="userSpaceOnUse">
<stop stop-color="#F08504"/>
<stop offset="1" stop-color="#E5322D"/>
</linearGradient>
<linearGradient id="paint1_linear_43_150" x1="3.10973" y1="22.5798" x2="32.4323" y2="22.5798" gradientUnits="userSpaceOnUse">
<stop stop-color="#E53282"/>
<stop offset="1" stop-color="#851D7B"/>
</linearGradient>
<linearGradient id="paint2_linear_43_150" x1="7.64574" y1="17.6314" x2="37.8135" y2="17.6314" gradientUnits="userSpaceOnUse">
<stop stop-color="#3AB4E6"/>
<stop offset="1" stop-color="#004996"/>
</linearGradient>
<linearGradient id="paint3_linear_43_150" x1="13.9163" y1="14.3541" x2="38.0776" y2="14.3541" gradientUnits="userSpaceOnUse">
<stop stop-color="#97BE11"/>
<stop offset="1" stop-color="#258F2D"/>
</linearGradient>
<linearGradient id="paint4_linear_43_150" x1="20.6393" y1="11.3865" x2="37.3038" y2="11.3865" gradientUnits="userSpaceOnUse">
<stop stop-color="#F08504"/>
<stop offset="1" stop-color="#E5322D"/>
</linearGradient>
<linearGradient id="paint5_linear_43_150" x1="26.4512" y1="8.50912" x2="37.2448" y2="8.50912" gradientUnits="userSpaceOnUse">
<stop stop-color="#E53282"/>
<stop offset="1" stop-color="#851D7B"/>
</linearGradient>
</defs>
</svg>
