<svg width="90" height="83" viewBox="0 0 90 83" fill="none" xmlns="http://www.w3.org/2000/svg">
<path d="M28.3541 83C28.3154 83 28.2768 82.9959 28.2382 82.9877C28.0248 82.9425 27.8463 82.776 27.7691 82.548L0.0403462 0.947236C-0.0461163 0.690378 0.0090729 0.400641 0.180158 0.207484C0.353083 0.0122718 0.610632 -0.0514327 0.842426 0.043091L89.5898 36.5889C89.8363 36.6895 90 36.9526 90 37.2464C90 37.5403 89.8363 37.8012 89.5898 37.9019C88.7582 38.243 69.1368 46.2611 60.3949 46.7604C60.2606 46.7666 60.1281 46.7276 60.0159 46.6454C42.2892 33.4963 24.4375 19.9773 6.85617 6.39058C24.1689 25.1309 50.8932 53.8456 51.1912 54.1662C51.434 54.4292 51.4488 54.8587 51.2206 55.1402L28.8158 82.774C28.6981 82.9178 28.5307 83 28.3541 83ZM2.16144 3.24869L28.5767 80.9842L49.8869 54.7004C46.0403 50.5681 17.9252 20.3472 2.16144 3.24869ZM4.9871 3.24046C23.3356 17.4498 42.0023 31.6017 60.5347 45.3508C67.7405 44.8474 82.6213 39.178 87.5404 37.2361L4.9871 3.24046Z" fill="#10BC4C"/>
</svg>
