<svg width="46" height="47" viewBox="0 0 46 47" fill="none" xmlns="http://www.w3.org/2000/svg">
<rect width="46" height="47" rx="5" fill="#18BC51"/>
<path d="M32.375 36.125C34.4461 36.125 36.125 34.4461 36.125 32.375C36.125 30.3039 34.4461 28.625 32.375 28.625C30.3039 28.625 28.625 30.3039 28.625 32.375C28.625 34.4461 30.3039 36.125 32.375 36.125Z" fill="white"/>
<path d="M17.375 20.1875H19.25V22.0625H17.375V20.1875ZM17.375 24.875H19.25V26.75H17.375V24.875ZM17.375 29.5625H19.25V31.4375H17.375V29.5625ZM21.125 20.1875H28.625V22.0625H21.125V20.1875ZM21.125 24.875H28.625V26.75H21.125V24.875ZM21.125 29.5625H24.875V31.4375H21.125V29.5625Z" fill="white"/>
<path d="M14.5625 34.25V14.5625H17.375V17.375H28.625V14.5625H31.4375V24.875H33.3125V14.5625C33.3125 14.0652 33.115 13.5883 32.7633 13.2367C32.4117 12.885 31.9348 12.6875 31.4375 12.6875H28.625V11.75C28.625 11.2527 28.4275 10.7758 28.0758 10.4242C27.7242 10.0725 27.2473 9.875 26.75 9.875H19.25C18.7527 9.875 18.2758 10.0725 17.9242 10.4242C17.5725 10.7758 17.375 11.2527 17.375 11.75V12.6875H14.5625C14.0652 12.6875 13.5883 12.885 13.2367 13.2367C12.885 13.5883 12.6875 14.0652 12.6875 14.5625V34.25C12.6875 34.7473 12.885 35.2242 13.2367 35.5758C13.5883 35.9275 14.0652 36.125 14.5625 36.125H24.875V34.25H14.5625ZM19.25 11.75H26.75V15.5H19.25V11.75Z" fill="white"/>
</svg>
